<svg xmlns="http://www.w3.org/2000/svg" width="2000" height="441" viewBox="0 0 2000 441">
  <defs>
    <style>
      .cls-1 {
        fill-rule: evenodd;
      }
    </style>
  </defs>
  <path id="Вектор" class="cls-1" d="M977.864-.12c44.856,5.069,59.736,84.513,48.146,135.8V157.9c-0.54,15.782-2.27,39-12.34,45.677-13.09,8.67-26.861-2.137-29.633-12.345-3.54-13.036,5.04-28.388,7.407-38.27V141.849c-2.264-1.586-2.113-2.429-4.938-3.7-4.372-2.278-16.023,4.824-20.987,7.407-14.055,7.315-28.276,15.6-44.442,20.987-10.558,3.521-22.875,1.137-23.456,14.814,2.11,2.047,2.865,5.333,4.938,7.407s5.36,2.83,7.407,4.938c21.864-.687,32.747-15.332,55.553-16.049q0.616,0.618,1.235,1.235a232.97,232.97,0,0,1-1.235,34.566c-2.872,1.958-5.281,6.169-8.642,7.407-12.587,4.64-32.734-1.466-38.27,9.876-8.514,13.335,12.239,35.273,14.815,43.208,3.994,12.305-5.217,24.783-2.469,38.27,13.759,8.13,19.828,4.226,37.035,8.642,27.4,7.032,41.632,9.625,55.552-12.345,3.42-5.392,6.96-6.841,7.41-16.049a153.089,153.089,0,0,1-24.69-18.518c-0.41-3.291-.83-6.584-1.24-9.876,5.55-7.11,7.32-14.534,17.29-17.283,25.06-6.916,61.75,17.153,56.78,39.5-4.24,19.119-32.67,68.97-49.38,74.071-22.78,6.957-55.892-2.235-77.771,3.7-21.422,5.814-36.709,19.835-61.725,19.752-3.83-3.137-6.78-3.267-8.642-8.641-5.19-6.909-3.451-20.813-1.234-29.629,1.607-6.395.788-11.137,3.7-16.049,7.921-13.343,31.067-27.05,24.69-53.084-5.732-23.4-21.01-40.286-30.862-59.256-2.838-5.464-2.827-10.192-6.173-14.814-3.266-4.512-9.019-6.528-13.58-9.877-17.175-12.612-25.464-22.137-22.221-48.146,6.122-4.632,9.815-12.707,17.283-16.048,16.637-7.443,38.619-1.969,58.022-7.407,19.5-5.466,38.51-18.924,48.146-34.567,14.875-24.144,3.978-54.5,9.877-81.478ZM1280.32,27.04h7.41c5.26,8.147,15.15,12.263,19.75,20.987,9.42,17.855,10.42,32.884,29.63,40.739,19.64,8.036,36.78-9.528,61.72-3.7,33.6,7.844,64.71,45.829,49.38,92.588-6.55,19.988-25.87,33.994-41.97,44.443-11.87,7.706-32.45,3.227-33.33,22.221,9.7,8.765,20.25,18.144,33.33,23.456,4.87,1.976,11.43-.682,17.28,1.234,5.87,1.921,11.25,7.9,16.05,11.111,18.01,12.04,32.9,25.946,25.93,55.553-8.49,5.652-17.96,10.239-27.16,16.049-7.24,4.572-12.97,12.011-22.22,14.814-27.5,8.328-45.88-15.427-45.68-40.739,2.47-2.468,21.8-22.412,22.22-23.456v-7.407c-4.05-2.278-5.28-7.113-8.64-9.876-11.01-9.043-24.59-17.636-37.04-24.69-5.17-2.932-16.88-8.522-20.98-1.235-7.7,11.323,9.61,38.459,13.58,48.146,17.42,42.6-1.68,78.932-38.27,87.651-25.55,6.085-53.06-13.951-46.91-39.5,6.59-27.438,18.2-51.992,24.69-77.774,4.13-16.438-10.66-22.817-7.41-35.8,1.65-6.6,7.89-12.1,11.11-17.283,5.76-9.286,9.56-21.6,12.34-33.332,1.89-7.921.23-22.389-1.23-28.394-2.27-9.355-1.61-15.572-4.94-23.456-10.45-24.774-36.07-40.41-25.92-79.009,1.89-7.193,1.04-12.314,3.7-18.518C1269.72,34.909,1275.31,31.87,1280.32,27.04ZM416.16,62.84c40.592,2.863,56.788,28.919,56.788,72.837V161.6c-4.956,23.263-7.777,55.589-1.235,79.009a350.784,350.784,0,0,0,28.394,70.367c6.773,12.508,16.269,24.894,20.987,39.5q2.469,16.665,4.938,33.332c3.781,15.016,12.04,37.748,6.173,53.084a22.256,22.256,0,0,0-4.938,3.7c-45.114,3.721-39.843-23.887-64.2-40.739-13.876-9.6-28.417-12.229-33.332-30.863-6.277-23.8,18.788-23.831,20.987-40.739,2.511-6-1.024-64.594-3.7-76.54l-7.407-6.172h-13.58c-4.013,4.064-10.187,6.469-13.579,11.11-12.464,17.051-20.519,40.678-28.394,61.726-7.7,20.573-10.359,47.968-27.159,59.257-13.223,8.884-33.056,4.024-43.208-3.7-15.917-12.116-13.831-43.925-3.7-60.491,19.746-32.3,54.454-50.11,66.664-90.12,12.616-41.342-15.143-108.25,4.938-140.734,4.343-7.026,14.208-14.068,22.221-17.283C407.477,63.84,413.116,64.734,416.16,62.84Zm1157.97,0c63.38,3.815,65,76.873,51.85,139.5q1.245,15.429,2.47,30.862c4.71,3.436,7.64,8.582,13.58,11.111,22.65,9.642,59.27,6.388,59.26,38.27-2.87,4.058-3.3,9.6-6.17,13.58q-9.27,8.64-18.52,17.283l-8.64,11.11c0.58,18.352,14.56,33.127,7.4,53.085-10.23,28.558-65.13,27.76-81.47,4.938-7.81-10.9-7.25-31.433-2.47-45.677,8.23-24.547,26.26-38.662,32.1-65.43-13.54-12.047-10.49-26.2-39.51-25.924-3.99,4.085-10.18,6.468-13.58,11.11-10.48,14.326-21.48,39.963-28.39,56.788-9.29,22.623-8.3,51.569-27.16,64.195-22.6,15.13-52.15-1.657-51.85-27.16,14.07-14.651,13.34-44.836,1.23-61.725q-10.485-9.876-20.98-19.753c-4.52-6.108-10.9-19.136,0-23.455,18.41-14.359,59.93,9.378,79,6.172,11.67-18.989,21.72-55.355,14.82-87.65-4.77-22.342-8.52-56.292,0-76.54,4.07-9.684,14.86-18.319,24.69-22.221C1565.46,63.854,1571.1,64.742,1574.13,62.84Zm329.62,7.407c37.64-.847,68.05,8.505,67.9,44.442a17.469,17.469,0,0,1-4.94,1.235c-36.42-36.212-101.69,12.665-88.88,66.663,10.84,45.709,32.53,74.973,43.2,119.748,7.85,32.907-22.45,59.692-43.2,65.429-7.74,2.14-15.95-1.3-20.99-2.469-4.22-5.925-8.99-9.975-11.11-18.517-5.19-20.9,9.21-37.778,4.94-58.022-5.5-26.036-9.93-50.231-16.05-74.071h-2.47v1.234c-9.31,10.376-11.1,51.568-11.11,71.6-0.01,9.79,1.72,18.094,0,25.925-2.75,12.5-.13,21.069-8.64,27.159-12.19,8.919-17.88-4.605-20.99-13.579-6.88-19.857-6.53-67.453-24.69-74.071-1.91-1.3-5.04-1.273-8.64-1.235-1.59,2.558-2.57,2.843-3.71,6.173-4,6.9,3.42,25.285,6.18,32.1,16.41,40.56,15.05,79-20.99,97.527-10.59,5.443-28.15,9.09-39.5,1.234-12.93-8.949-12.22-44.14-6.18-61.725,5.89-17.134,33.82-34.329,27.16-61.726-3.52-14.5-12.15-25.917-16.05-39.5q-1.23-14.195-2.47-28.393c-4.29-18.2-8.68-36.487-13.58-53.085-5.3-17.963-1.8-37.763,9.88-45.677,12.2-8.269,29.93-6.4,41.97,0,26.94,14.321,29.9,44.809,39.51,76.54,4.25,14.047,4.25,37,20.99,38.27,12.79-18.428,9.05-31.888,16.04-55.553,5-16.922,10.63-33.855,19.76-46.911,9.8-14.023,25.29-27.586,41.97-34.567C1886.32,73.382,1897.12,74.427,1903.75,70.248ZM34.7,76.42c40.659-.5,58.892,14.44,81.478,30.863,6.643,4.83,14.213,9.055,18.518,16.049,3.7,6.009.816,16.264,3.7,23.455L145.8,154.2c17.358-4.112,41.417-33.081,58.022-43.208,9.028-5.506,21-9.694,32.1-12.346,12.989-3.1,28.024,1.608,37.036,3.7,20,4.651,37.682.677,51.849,9.876,6.133,3.982,8.66,10.876,13.58,16.049,2.768,32.332-18.438,42.191-25.925,66.663-6.465,21.132-2.489,46.314-8.642,66.664-15.164,50.16-43.434,85.232-92.588,101.23-7.376,2.4-30.518,6.811-39.5,4.938-13.87-2.89-30.745-5.155-43.208,0-8.85,3.662-24,12.414-29.628,19.753-5.652,7.374-4.826,16.34-17.283,17.283-1.584-2.558-2.565-2.843-3.7-6.173-9.133-12.18.081-41.361,0-58.022-0.159-32.769-4.219-71.906,2.469-102.465,3.086-14.1-.955-31.094,2.469-46.911,0.617-2.849,2.3-10.047,1.235-14.814-5-22.3-8.432-42.378-19.752-58.022-8.392-11.6-33.4-20.018-38.27-32.1-1.728-2.765-.673-4.044,0-7.407h2.469C29.767,78.034,33.46,77.3,34.7,76.42Zm625.9,169.129c-12.933-1-34.735,6.5-39.5-7.408-14.49-17.541,4.891-36.13,18.517-39.5,8.927-2.21,18.49,3.3,24.691,4.938,22.479,5.926,54.561,3.283,65.429,19.752,4.83,7.32,1.489,18.867-2.469,24.691-6.908,10.163-20.977,16.081-30.863,23.455-13.69,10.212-22.866,35.065-29.628,51.85-5.678,14.093-1.827,44.169-16.049,49.38-13.888,8.661-30.165-11.173-45.677-3.7-24.329,11.716-22.852,55.316-56.788,56.788l-1.234-1.235c-3.791-30.294-6.831-71.324,0-102.465,3.188-14.536,9.054-45.847,4.938-64.194-8.465-37.732-23.681-65.288-32.1-101.23-8.234-35.162,11.016-59.425,37.036-65.43,6.858-1.583,14.331,1,18.518,2.469,40.94,14.33,24.008,91.67,14.814,128.39-2.742,10.95-2.729,21.987-4.938,32.1-3.592,16.434,1.547,54.2,9.876,58.022h8.641c14.122-13.578,27.552-24.776,39.5-40.739C649.407,263.333,659.712,258.947,660.594,245.549ZM730.961,91.234c60.631-.87,46.029,80.879,37.036,123.452v19.752c-2.1,9.409-5.009,20-7.407,28.394-7.359,25.75,2.218,55.258,24.69,56.787,3.251-2.332,7.9-2.576,11.111-4.938,7.739-5.694,20.657-31,20.986-44.442-12.2-14.968-25.9-27.483-25.924-54.319,4.678-5.05,6.765-11.867,13.579-14.814,31.161-13.478,65.447,31.95,75.306,50.615,6.615,12.525,18.236,33.536,7.407,49.381-8.078,11.818-29.606,9.827-45.677,13.579-6.2,13.84-7.526,39.164-11.111,54.319-4.62,3.066-5.846,5.592-13.58,6.173-5.586-3.607-14.254-2.745-20.986-4.939-10.373-3.38-33.828-15.6-49.381-11.11-9.867,2.846-12.422,11.615-25.925,12.345L719.851,369c-5.29-6.938-1.755-24.156,0-32.1,3.857-17.458.283-41.434,7.407-55.554,6.5-12.877,21.115-20.937,22.221-39.5,1.962-32.92-27.609-37.441-43.208-53.084-10.591-10.622-15.917-40.51-12.345-60.491,0.977-5.469,3.4-12.829,6.173-17.283,4.353-6.99,12.94-14.043,20.986-17.284C724.444,92.35,728.339,92.958,730.961,91.234ZM1191.44,313.447c-15.29.169-24.16,0.225-35.81-2.469-8.97-12.986-13.66-16.047-8.64-37.036l8.64-8.641c6.51-3.506,20.84-.948,29.63-1.235,23.72-.774,48.98.6,55.56,19.753,9.05,11.677-6.35,36.778-11.11,44.442-13.7,22.025-26.41,37.864-54.32,45.677l-19.76,1.235c-8.84,1.862-25.72,2-34.56,0-21.39-4.841-38.25-1.122-46.91-18.518-11.71-23.488,22.42-46.859,14.81-77.775-3.23-13.127-11.31-22.416-16.05-33.331-5.51-12.684-8.99-26.568-12.34-40.739-3.96-16.727,4.53-31.128,8.64-40.739,16.44-38.457,37.89-62.5,82.71-72.837,16.8-3.875,36.04,2.582,46.91,6.172,40.91,13.513,70.64,21.476,81.48,65.429,1.6,6.491,2.25,19.148,0,25.925-7.79,23.473-49.82,47.068-76.54,35.8-3.95-1.666-9.6-.913-12.34-3.7-10.46-10.619,5.65-32.989-6.18-39.5-14.17-9.284-40.67,11.475-46.91,16.049-12.32,9.027-24.01,20.377-29.63,35.8-7.62,20.914,2.13,79.276,11.11,92.589,12.26,18.17,61.52,19.127,69.14-3.7C1190.84,319.749,1191.17,317.657,1191.44,313.447Zm125.92-196.288c-5.14,11.1,1.85,23.333,6.17,32.1,10.48,21.293,15.35,40.033,30.86,55.554,28.04,1.607,43.3-22.113,50.62-44.443,6.64-20.283,2.41-38.84-20.99-38.27C1367.55,133.444,1336.15,117.636,1317.36,117.159ZM429.74,144.318c-12.837,12.892-21.545,61.1,9.876,60.492,11.43-17.258,6.492-44.743-3.7-60.492H429.74Zm1157.97,0c-12.83,12.892-21.54,61.1,9.88,60.492,11.43-17.258,6.49-44.743-3.7-60.492h-6.18ZM293.943,146.787c-28.463-3.287-39.677,19.107-70.367,19.753-5.693-5.462-12.892-9.289-18.518-14.815-9.585,0-17.731-.126-23.455,3.7C158.923,170.6,149.554,237.652,140.864,269c-6.163,22.234-5.887,51.185,13.579,58.023,27.254,9.572,48.548-14.578,58.022-28.394,22.6-32.951,37.054-74.254,58.023-108.638,7.472-12.253,12.408-27.292,23.455-35.8v-7.408Z"/>
</svg>
